{"title":"Arena.2011.720p.BRRip.x264.Feel-Free (SEEDBOX SUPPORTED)","uid":6888027,"size":2386672024,"categoryP":"video","categoryS":"hd___movies","magnet":"?xt=urn:btih:fc2c93f9210640d25b7cd7d8d521e432be11b153&amp;dn=Arena.2011.720p.BRRip.x264.Feel-Free+%28SEEDBOX+SUPPORTED%29&amp;tr=udp%3A%2F%2Ftracker.openbittorrent.com%3A80&amp;tr=udp%3A%2F%2Fopen.demonii.com%3A1337&amp;tr=udp%3A%2F%2Ftracker.coppersurfer.tk%3A6969&amp;tr=udp%3A%2F%2Fexodus.desync.com%3A6969","seeders":1,"leechers":0,"uploader":"Hackulus","files":-1,"time":1323902888,"description":"Genre:Action | Thriller\nLanguage:English\nIMDb:http://www.imdb.com/title/tt1117581/\nSource:.BluRay.x264.DTS-HDChina Thanks!\n\nFormat : MPEG-4\nFormat profile : Base Media\nCodec ID : isom\nFile size : 2.22 GiB\nDuration : 1h 34mn\nOverall bit rate : 3 369 Kbps\n\n\nVideo\nID : 1\nFormat : AVC\nFormat/Info : Advanced Video Codec\nFormat profile : &lt;a class=&quot;__cf_email__&quot; href=&quot;/cdn-cgi/l/email-protection&quot; data-cfemail=&quot;6921000e0129255c4758&quot;&gt;[email&amp;#160;protected]&lt;/a&gt;&lt;script cf-hash='f9e31' type=&quot;text/javascript&quot;&gt;\n/* &lt;![CDATA[ */!function(){try{var t=&quot;currentScript&quot;in document?document.currentScript:function(){for(var t=document.getElementsByTagName(&quot;script&quot;),e=t.length;e--;)if(t[e].getAttribute(&quot;cf-hash&quot;))return t[e]}();if(t&amp;&amp;t.previousSibling){var e,r,n,i,c=t.previousSibling,a=c.getAttribute(&quot;data-cfemail&quot;);if(a){for(e=&quot;&quot;,r=parseInt(a.substr(0,2),16),n=2;a.length-n;n+=2)i=parseInt(a.substr(n,2),16)^r,e+=String.fromCharCode(i);e=document.createTextNode(e),c.parentNode.replaceChild(e,c)}}}catch(u){}}();/* ]]&gt; */&lt;/script&gt;\nFormat settings, CABAC : Yes\nFormat settings, ReFrames : 3 frames\nCodec ID : avc1\nCodec ID/Info : Advanced Video Coding\nDuration : 1h 34mn\nBit rate mode : Variable\nBit rate : 3 000 Kbps\nMaximum bit rate : 16.3 Mbps\nWidth : 1 280 pixels\nHeight : 536 pixels\nDisplay aspect ratio : 2.35:1\nFrame rate mode : Constant\nFrame rate : 23.976 fps\nColor space : YUV\nChroma subsampling : 4:2:0\nBit depth : 8 bits\nScan type : Progressive\nBits/(Pixel*Frame) : 0.182\nStream size : 1.92 GiB (87%)\nWriting library : x264\n\n\nAudio\nID : 2\nFormat : AAC\nFormat/Info : Advanced Audio Codec\nFormat version : Version 4\nFormat profile : LC\nFormat settings, SBR : No\nCodec ID : 40\nDuration : 1h 34mn\nBit rate mode : Variable\nBit rate : 446 Kbps\nMaximum bit rate : 530 Kbps\nChannel(s) : 6 channels\nChannel positions : Front: L C R, Side: L R, LFE\nSampling rate : 48.0 KHz\nStream size : 301 MiB (13%)\n\n\nPlot:\nDavid Lord finds himself forced into the savage world of a modern gladiatorial arena, where men fight to the death for the entertainment of the online masses\n\n &lt;a href=&quot;\nhttp://img43.imageshack.us/img43/2397/vlcsnap00004qb.png&quot; rel=&quot;nofollow&quot; target=&quot;_NEW&quot;&gt;\nhttp://img43.imageshack.us/img43/2397/vlcsnap00004qb.png&lt;/a&gt; &lt;a href=&quot;\nhttp://img814.imageshack.us/img814/1751/vlcsnap00006fb.png&quot; rel=&quot;nofollow&quot; target=&quot;_NEW&quot;&gt;\nhttp://img814.imageshack.us/img814/1751/vlcsnap00006fb.png&lt;/a&gt; &lt;a href=&quot;\nhttp://img6.imageshack.us/img6/751/vlcsnap00007ot.png&quot; rel=&quot;nofollow&quot; target=&quot;_NEW&quot;&gt;\nhttp://img6.imageshack.us/img6/751/vlcsnap00007ot.png&lt;/a&gt;","torrent":{"xt":"urn:btih:fc2c93f9210640d25b7cd7d8d521e432be11b153","amp;dn":"Arena.2011.720p.BRRip.x264.Feel-Free+%28SEEDBOX+SUPPORTED%29","amp;tr":["udp%3A%2F%2Ftracker.openbittorrent.com%3A80","udp%3A%2F%2Fopen.demonii.com%3A1337","udp%3A%2F%2Ftracker.coppersurfer.tk%3A6969","udp%3A%2F%2Fexodus.desync.com%3A6969"],"infoHash":"fc2c93f9210640d25b7cd7d8d521e432be11b153","infoHashBuffer":{"type":"Buffer","data":[252,44,147,249,33,6,64,210,91,124,215,216,213,33,228,50,190,17,177,83]},"announce":[],"urlList":[]}}